<?xml version="1.0" encoding="UTF-8" standalone="no"?>
<svg
   version="1.2"
   viewBox="0 0 32 32"
   width="32"
   height="32"
   id="svg27"
   sodipodi:docname="T-Logo.svg"
   inkscape:version="1.2.1 (9c6d41e410, 2022-07-14)"
   xmlns:inkscape="http://www.inkscape.org/namespaces/inkscape"
   xmlns:sodipodi="http://sodipodi.sourceforge.net/DTD/sodipodi-0.dtd"
   xmlns="http://www.w3.org/2000/svg"
   xmlns:svg="http://www.w3.org/2000/svg">
  <sodipodi:namedview
     id="namedview706"
     pagecolor="#ffffff"
     bordercolor="#000000"
     borderopacity="0.25"
     inkscape:showpageshadow="2"
     inkscape:pageopacity="0.0"
     inkscape:pagecheckerboard="0"
     inkscape:deskcolor="#d1d1d1"
     showgrid="false"
     showguides="true"
     inkscape:zoom="25.1875"
     inkscape:cx="16"
     inkscape:cy="16"
     inkscape:window-width="1920"
     inkscape:window-height="1009"
     inkscape:window-x="-8"
     inkscape:window-y="-8"
     inkscape:window-maximized="1"
     inkscape:current-layer="svg27" />
  <defs
     id="defs31" />
  <style
     id="style21">.a{fill:#102694}.b{fill:#1e78c2}</style>
  <g
     id="g7890"
     transform="matrix(0.09119149,0,0,0.08953553,-0.02735745,-0.06267488)">
    <path
       class="a"
       d="m 151.4,261 19.5,-19.5 q 0.2,5.1 0.5,10.2 3.7,59.6 10.9,95.5 0.8,4.5 -1.9,7.7 -2.7,3.2 -6.9,3.2 -6.9,0 -9.9,-7.4 Q 156,321.2 151.4,261 Z"
       id="path23"
       style="fill:#05b1fa;fill-opacity:1" />
    <path
       fill-rule="evenodd"
       class="b"
       d="m 349.8,4.5 q -1.4,5.6 -7,10.2 -17.5,13.6 -62.8,16.3 -45.3,2.8 -102.1,-6 0.2,1.9 -0.2,3.9 -7.4,40.8 -8.6,102 -1,47.2 0.9,93.4 l -19.7,19.8 q -0.4,-6 -0.8,-12.3 -1.4,-6.1 -10.4,-31.4 -9,-25.3 -25.7,-56.7 Q 102.5,123.2 86.5,103.1 70.5,83 49.8,69.7 29.1,56.3 3.5,55.7 1.6,55.7 0.7,54.1 0.1,52.9 0.4,51.7 0.7,50.5 1.8,49.9 2.7,49.1 16.1,42.2 29.5,35.4 52.4,27.3 q 20.8,-7.4 49.7,-11.8 28.8,-4.4 60.7,0.5 2.3,-1.1 4.9,-1.1 4.5,0 7.2,3.1 52.8,8.7 98.7,7 48.7,-2.4 65.3,-15.2 3.8,-3.1 4.7,-6.8 1,-2.3 3.2,-2.3 1.4,0 2.3,1.2 1,1.1 0.7,2.6 z M 135.3,140.6 c 0,1.6 -1,2.8 -2.3,3.3 l 15.1,58.8 q -1.8,-46.5 -0.7,-89.3 l -13.7,24.4 c 1,0.6 1.6,1.7 1.6,2.8 z M 149.4,72.4 117,66 c -0.4,1.4 -1.5,2.6 -2.8,3.2 l 17.1,68 q 0.2,-0.1 0.4,-0.1 0.3,0 0.6,0.1 l 15.2,-27.1 q 0.2,-5.6 0.4,-11.1 0.5,-14.3 1.5,-26.6 z m 0.2,-1.6 q 2.6,-30.3 8.1,-48.7 l -41.5,39.4 c 0.6,0.8 1,1.9 1,2.9 z M 101.2,22.1 q -23,3.7 -40.8,9.3 l 48.1,29.7 c 0.9,-1 2.2,-1.6 3.6,-1.6 0.9,0 1.6,0.2 2.3,0.5 l 40.9,-38.8 q -28.4,-3.3 -54.1,0.9 z M 14.9,50 107.5,62.4 q 0.1,0 0.1,-0.1 L 58.5,32.1 q -2,0.6 -3.9,1.3 Q 28.3,42.7 14.9,50 Z m 94.6,74.4 1.3,-54.9 C 108.7,69 107.1,67 107.1,64.8 L 34.2,55 q 19.5,7 37.6,23.3 20,17.9 37.7,46.1 z m 33.2,67.7 -12.1,-48.1 c -1.4,-0.5 -2.4,-1.8 -2.4,-3.3 0,-0.9 0.4,-1.8 1,-2.4 L 112.4,71.5 111,126.8 q 4.1,6.7 8.1,13.9 10.1,18.6 17.4,36 3.4,8.1 6.2,15.4 z"
       id="path25"
       style="fill:#05b1fa;fill-opacity:1" />
  </g>
  <g
     id="g8651"
     transform="matrix(0.09119149,0,0,0.08953553,-0.02735745,-0.06267488)">
    <path
       class="a"
       d="m 151.4,261 19.5,-19.5 q 0.2,5.1 0.5,10.2 3.7,59.6 10.9,95.5 0.8,4.5 -1.9,7.7 -2.7,3.2 -6.9,3.2 -6.9,0 -9.9,-7.4 Q 156,321.2 151.4,261 Z"
       id="path8647"
       style="fill:#05b1fa;fill-opacity:1" />
    <path
       fill-rule="evenodd"
       class="b"
       d="m 349.8,4.5 q -1.4,5.6 -7,10.2 -17.5,13.6 -62.8,16.3 -45.3,2.8 -102.1,-6 0.2,1.9 -0.2,3.9 -7.4,40.8 -8.6,102 -1,47.2 0.9,93.4 l -19.7,19.8 q -0.4,-6 -0.8,-12.3 -1.4,-6.1 -10.4,-31.4 -9,-25.3 -25.7,-56.7 Q 102.5,123.2 86.5,103.1 70.5,83 49.8,69.7 29.1,56.3 3.5,55.7 1.6,55.7 0.7,54.1 0.1,52.9 0.4,51.7 0.7,50.5 1.8,49.9 2.7,49.1 16.1,42.2 29.5,35.4 52.4,27.3 q 20.8,-7.4 49.7,-11.8 28.8,-4.4 60.7,0.5 2.3,-1.1 4.9,-1.1 4.5,0 7.2,3.1 52.8,8.7 98.7,7 48.7,-2.4 65.3,-15.2 3.8,-3.1 4.7,-6.8 1,-2.3 3.2,-2.3 1.4,0 2.3,1.2 1,1.1 0.7,2.6 z M 135.3,140.6 c 0,1.6 -1,2.8 -2.3,3.3 l 15.1,58.8 q -1.8,-46.5 -0.7,-89.3 l -13.7,24.4 c 1,0.6 1.6,1.7 1.6,2.8 z M 149.4,72.4 117,66 c -0.4,1.4 -1.5,2.6 -2.8,3.2 l 17.1,68 q 0.2,-0.1 0.4,-0.1 0.3,0 0.6,0.1 l 15.2,-27.1 q 0.2,-5.6 0.4,-11.1 0.5,-14.3 1.5,-26.6 z m 0.2,-1.6 q 2.6,-30.3 8.1,-48.7 l -41.5,39.4 c 0.6,0.8 1,1.9 1,2.9 z M 101.2,22.1 q -23,3.7 -40.8,9.3 l 48.1,29.7 c 0.9,-1 2.2,-1.6 3.6,-1.6 0.9,0 1.6,0.2 2.3,0.5 l 40.9,-38.8 q -28.4,-3.3 -54.1,0.9 z M 14.9,50 107.5,62.4 q 0.1,0 0.1,-0.1 L 58.5,32.1 q -2,0.6 -3.9,1.3 Q 28.3,42.7 14.9,50 Z m 94.6,74.4 1.3,-54.9 C 108.7,69 107.1,67 107.1,64.8 L 34.2,55 q 19.5,7 37.6,23.3 20,17.9 37.7,46.1 z m 33.2,67.7 -12.1,-48.1 c -1.4,-0.5 -2.4,-1.8 -2.4,-3.3 0,-0.9 0.4,-1.8 1,-2.4 L 112.4,71.5 111,126.8 q 4.1,6.7 8.1,13.9 10.1,18.6 17.4,36 3.4,8.1 6.2,15.4 z"
       id="path8649"
       style="fill:#05b1fa;fill-opacity:1" />
  </g>
</svg>
